<?xml version="1.0" encoding="utf-8"?>
<!-- Generator: Adobe Illustrator 19.1.0, SVG Export Plug-In . SVG Version: 6.00 Build 0)  -->
<svg version="1.1" id="Слой_1" xmlns="http://www.w3.org/2000/svg" xmlns:xlink="http://www.w3.org/1999/xlink" x="0px" y="0px"
	 viewBox="4.4 -3.8 35.1 34.8" style="enable-background:new 4.4 -3.8 35.1 34.8;" xml:space="preserve">
<style type="text/css">
	.st0{fill:none;stroke:#ffffff;stroke-miterlimit:10;}
</style>
<line class="st0" x1="30.7" y1="0.4" x2="12.9" y2="0.4"/>
<path class="st0" d="M34.6,0.4C37,0.5,39,2.5,39,4.9V26c0,2.5-2.1,4.6-4.6,4.6H9.5c-2.5,0-4.6-2-4.6-4.6V4.9c0-2.4,1.9-4.4,4.2-4.5"
	/>
<line class="st0" x1="5" y1="9.7" x2="38.7" y2="9.7"/>
<path class="st0" d="M12.9,2.2c0,1-0.8,1.9-1.9,1.9l0,0c-1,0-1.9-0.8-1.9-1.9v-3.6c0-1,0.8-1.9,1.9-1.9l0,0c1,0,1.9,0.8,1.9,1.9V2.2
	z"/>
<path class="st0" d="M34.4,2.2c0,1-0.8,1.9-1.9,1.9l0,0c-1,0-1.9-0.8-1.9-1.9v-3.6c0-1,0.8-1.9,1.9-1.9l0,0c1,0,1.9,0.8,1.9,1.9V2.2
	z"/>
</svg>
