<?xml version="1.0" encoding="utf-8"?>
<!-- Generator: Adobe Illustrator 19.1.0, SVG Export Plug-In . SVG Version: 6.00 Build 0)  -->
<svg version="1.1" id="Слой_1" xmlns="http://www.w3.org/2000/svg" xmlns:xlink="http://www.w3.org/1999/xlink" x="0px" y="0px"
	 viewBox="1 -1.6 29.5 31.1" style="enable-background:new 1 -1.6 29.5 31.1;" xml:space="preserve">
<style type="text/css">
	.st0{fill:none;stroke:#ffffff;stroke-linecap:round;stroke-linejoin:round;stroke-miterlimit:10;}
</style>
<g>
	<g>
		<path class="st0" d="M26.9,8c-1.1-1-2.5-1.9-3.9-2.5c-0.2,0.3-0.4,0.5-0.6,0.8c-0.3,0.3-0.7,0.6-1.1,0.8c0.4,0.1,0.8,0.3,1.2,0.5
			c0.4,0.2,0.5,0.7,0.3,1s-0.6,0.5-0.9,0.3c-2.6-1.2-5.5-1-6.7-0.8c-0.4,0.1-0.7-0.2-0.8-0.5l0,0c-0.1-0.4,0.2-0.8,0.6-0.9
			c0.2,0,0.5-0.1,0.8-0.1c-0.1-0.1-0.2-0.2-0.3-0.3c-0.4-0.4-0.8-1-1-1.5c0-0.1-0.1-0.1-0.1-0.2c-0.4,0.1-0.8,0.1-1.1,0.2
			C11.1,3.5,8.5,3.5,7,3.7C6.3,3.8,5.9,4.5,6.2,5.1l1.3,2.7C6,9.1,4.9,10.6,4.3,12.3H2.7c-0.5,0-1,0.4-1,1v3.6
			c0,0.4,0.2,0.7,0.5,0.9l2.1,1.1c0.9,2.4,2.7,4.4,5,5.9V28c0,0.6,0.5,1.1,1.1,1.1h2.9c0.4,0,0.9-0.3,1-0.7l0.7-1.7
			c0.6,0.1,1.3,0.1,1.9,0.1c1,0,2-0.1,3-0.3v1.4c0,0.6,0.5,1.1,1.1,1.1h2.9c0.4,0,0.8-0.2,1-0.6c1.5-2.9,3.2-5.8,4.4-8.8
			c0.6-1.5,0.9-3.2,0.7-4.7C30,12.3,28.8,9.8,26.9,8L26.9,8z M9.5,14C8.7,14,8,13.4,8,12.5C8,11.7,8.6,11,9.5,11
			c0.8,0,1.5,0.6,1.5,1.5S10.3,14,9.5,14L9.5,14z"/>
	</g>
	<path class="st0" d="M17.5,6.5C18,6.7,18.4,6.8,19,6.8c0.2,0,0.5,0,0.7-0.1c1-0.2,1.8-0.7,2.4-1.5c0.5-0.6,0.8-1.4,0.8-2.3
		C22.9,0.7,21.1-1,19-1c-2.2,0-4,1.7-4,3.9c0,0.6,0.1,1.1,0.3,1.6C15.8,5.4,16.6,6.2,17.5,6.5L17.5,6.5z"/>
</g>
</svg>
