<?xml version="1.0" encoding="utf-8"?>
<!-- Generator: Adobe Illustrator 19.1.0, SVG Export Plug-In . SVG Version: 6.00 Build 0)  -->
<svg version="1.1" id="Слой_1" xmlns="http://www.w3.org/2000/svg" xmlns:xlink="http://www.w3.org/1999/xlink" x="0px" y="0px"
	 viewBox="4.1 1.2 34.9 26.2" style="enable-background:new 4.1 1.2 34.9 26.2;" xml:space="preserve">
<style type="text/css">
	.st0{fill:none;stroke:#ffffff;stroke-width:1.0029;stroke-linejoin:bevel;stroke-miterlimit:10;}
</style>
<path class="st0" d="M21.9,14.3c2.5,0,4.5-2.2,4.5-4.8s-2.1-4.7-4.6-4.7S17.3,7,17.3,9.6S19.4,14.3,21.9,14.3L21.9,14.3z"/>
<path class="st0" d="M23.7,14.9h-3.8c-3.2,0-5.8,2.6-5.8,5.8v4.7v0.1l0.3,0.1c3,1,5.7,1.3,7.9,1.3c4.3,0,6.7-1.2,6.9-1.3l0.3-0.2
	l0,0v-4.7C29.5,17.5,26.9,14.9,23.7,14.9L23.7,14.9z"/>
<path class="st0" d="M31.1,11.1c2.5,0,4.5-2.1,4.5-4.7s-2-4.7-4.5-4.7s-4.5,2.1-4.5,4.7S28.6,11.1,31.1,11.1L31.1,11.1z"/>
<path class="st0" d="M29.4,24c0.7,0.1,1.3,0.1,1.9,0.1c4.3,0,6.8-1.7,6.9-1.8l0.3-0.6l0,0v-4.3c0-3.5-2.6-6-5.8-6h-3.8
	c-2.3,0-4.4,1.4-5.3,3.5"/>
<path class="st0" d="M12.7,11.1c2.5,0,4.5-2.1,4.5-4.7s-2-4.7-4.5-4.7S8.2,3.8,8.2,6.4S10.2,11.1,12.7,11.1L12.7,11.1z"/>
<path class="st0" d="M19.8,14.8c-0.9-2-2.9-3.3-5.3-3.3h-3.9c-3.2,0-6,2.3-6,5.5v4.7l0.1,0.1l0.4,0.1c3.1,0.9,5.7,1.3,7.9,1.3
	c0.2,0,0.5,0,1,0"/>
</svg>
